<svg xmlns="http://www.w3.org/2000/svg" viewBox="0 0 496 496"><g fill="#f9e0a6"><path d="M200 240h96v104h-96zM88 416h320v72H88z"/></g><path d="M385.6 75.2A96 96 0 0 0 328 56l1.97-2.95A73.75 73.75 0 0 1 368 24l-14.06-4.69A86.38 86.38 0 0 0 288 24l-11.5-5.75A97.13 97.13 0 0 0 233.08 8C179.46 8 136 51.46 136 105.08V184h224v-63.58a35.65 35.65 0 0 1 15.88-29.66L392 80l-6.4-4.8z" fill="#d3a06c"/><path d="M200 283.02a95.28 95.28 0 0 0 96 0V240h-96v43.02z" fill="#eabd8c"/><path d="M248 280a80 80 0 0 1-80-80v-88h160v88a80 80 0 0 1-80 80z" fill="#f9e0a6"/><path d="M168 144h1.35c30.52 0 60.47-8.3 86.65-24 0 10.52-2.45 20.9-7.15 30.31L248 152a235.48 235.48 0 0 0 74.98-28.98L328 120V88H168v56z" fill="#d3a06c"/><path d="M304 80c24 8 24 40 24 40v64h32v-63.58a35.65 35.65 0 0 1 15.88-29.66L392 80l-6.4-4.8A96 96 0 0 0 328 56l1.97-2.95A73.75 73.75 0 0 1 368 24l-14.06-4.69A86.38 86.38 0 0 0 288 24v8c16 16 16 48 16 48z" fill="#b27946"/><path d="M168 152a32 32 0 0 0 0 64h160a32 32 0 0 0 0-64H168z" fill="#f9e0a6"/><path fill="#eabd8c" d="M88 416h320v32H88z"/><path d="M373.18 318.06L296 296s-8 32-48 32-48-32-48-32l-77.18 22.06A48 48 0 0 0 88 364.2V424h56v64h208v-64h56v-59.8a48 48 0 0 0-34.82-46.14z" fill="#fb5968"/><path d="M373.18 318.06L296 296s-1.91 7.49-8.37 15.22l60.48 27.9a48 48 0 0 1 27.89 43.6V424h32v-59.8a48 48 0 0 0-34.82-46.14z" fill="#cd2c5a"/><path d="M375.38 310.36L304 289.96v-22.14a88.15 88.15 0 0 0 28.71-44.3C352.53 221.16 368 204.44 368 184v-63.58a27.7 27.7 0 0 1 12.31-23.02l25.53-17.02L390.4 68.8a104.76 104.76 0 0 0-47.17-19.66 66.01 66.01 0 0 1 27.29-17.56L393.3 24l-36.84-12.28a93.83 93.83 0 0 0-68.37 3.38l-8.01-4a105.51 105.51 0 0 0-47-11.1C175.14 0 128 47.14 128 105.08V184c0 20.44 15.47 37.16 35.29 39.52a88.15 88.15 0 0 0 28.71 44.3v22.15l-71.38 20.39A56.23 56.23 0 0 0 80 364.2V496h336V364.2a56.23 56.23 0 0 0-40.62-53.84zm-39.72-103.73c.17-2.2.34-4.39.34-6.63v-38.53A23.97 23.97 0 0 1 352 184a23.96 23.96 0 0 1-16.34 22.63zM233.08 16a89.54 89.54 0 0 1 39.84 9.4L288 32.95l3.58-1.79a77.77 77.77 0 0 1 55.12-5.66A81.9 81.9 0 0 0 323.3 48.6L313.04 64H328c17.8 0 35.46 5.54 50.1 15.66l-6.66 4.44A43.72 43.72 0 0 0 352 120.42v31.78a39.62 39.62 0 0 0-16-7.4v-38.93l-17.14 10.28a226.56 226.56 0 0 1-57.76 24.56A76.2 76.2 0 0 0 264 120v-14.13l-12.12 7.27A160.44 160.44 0 0 1 176 135.86V120h-16v24.8a39.72 39.72 0 0 0-16 7.4v-47.12C144 55.96 183.96 16 233.08 16zM144 184a23.97 23.97 0 0 1 16-22.53V200c0 2.24.17 4.43.34 6.63A23.96 23.96 0 0 1 144 184zm32 16v-48.13c24.4-.92 48.32-6.9 70.24-17.51a59.75 59.75 0 0 1-4.55 12.37l-8.16 16.32 16.04-3.21A242.92 242.92 0 0 0 320 133.97V200c0 39.7-32.3 72-72 72s-72-32.3-72-72zm72 88c14.4 0 27.98-3.55 40-9.71v16.54c-1.37 4.15-9.77 25.17-40 25.17-30.14 0-38.56-20.82-40-25.18v-16.53a87.43 87.43 0 0 0 40 9.71zm-123 37.75l70.17-20.05c6.55 13.32 22.61 30.3 52.83 30.3s46.28-16.98 52.82-30.3L371 325.75A40.15 40.15 0 0 1 400 364.2V416h-40v-48h-16v112H152V368h-16v48H96v-51.8a40.15 40.15 0 0 1 29-38.45zM96 432h40v48H96v-48zm264 48v-48h40v48h-40z"/><circle cx="208" cy="176" r="8"/><circle cx="288" cy="176" r="8"/><path d="M248 248c17.65 0 32-14.35 32-32h-16c0 8.82-7.18 16-16 16s-16-7.18-16-16h-16c0 17.65 14.35 32 32 32zM176 424h16v-56h-24v16h8zM216 424h16v-56h-24v16h8z"/></svg>