<svg xmlns="http://www.w3.org/2000/svg" viewBox="0 0 496 496"><path d="M0 248a56 56 0 0 0 56 56h8V192h-8a56 56 0 0 0-56 56zm48 39.2a40 40 0 0 1 0-78.4v78.4z"/><path d="M40 176h16c0-88.2 71.8-160 160-160h8v84.3A191.5 191.5 0 0 1 102.2 144H80v152a104 104 0 0 0 88 102.6V496h72v-80h-16v64h-40v-80h56V0h-24C119 0 40 79 40 176zm184 158.9a32 32 0 0 1-24-30.9h-16a48 48 0 0 0 40 47.3V384h-40c-48.5 0-88-39.5-88-88V160h6.2c43.9 0 86.5-14 121.8-39.5v214.4z"/><path d="M160 256a24 24 0 1 0 0-48 24 24 0 0 0 0 48zm0-32a8 8 0 1 1 0 16 8 8 0 0 1 0-16zM440 192h-8v112h8a56 56 0 0 0 0-112zm8 95.2v-78.4a40 40 0 0 1 0 78.4zM256 160h144v136c0 48.5-39.5 88-88 88h-56v16h56c57.3 0 104-46.7 104-104V144H256v16zM312 0h-56v16h16v32h-16v16h32V16h16v64h-48v16h64V16.4a88 88 0 0 1 80 87.6v24h16v-24C416 46.7 369.3 0 312 0zM432 80h16V46.5a24 24 0 1 0-16 0V80zm8-64a8 8 0 1 1 0 16 8 8 0 0 1 0-16z"/><path d="M352 320a32 32 0 0 0-32-32h-64v16h16v32h-16v16h64a32 32 0 0 0 32-32zm-32-16a16 16 0 0 1 0 32v-32zm-16 32h-16v-32h16v32zM360 224a40 40 0 1 0-80 0 40 40 0 0 0 80 0zm-18.4-10.3a23.6 23.6 0 0 1 0 20.6L331.3 224l10.3-10.3zM320 200c3.7 0 7.2.9 10.3 2.4L320 212.7l-10.3-10.3c3.1-1.5 6.6-2.4 10.3-2.4zm-21.6 34.3a23.6 23.6 0 0 1 0-20.6l10.3 10.3-10.3 10.3zm21.6 1l10.3 10.3a23.6 23.6 0 0 1-20.6 0l10.3-10.3zM264 112h16v16h-16zM304 112h16v16h-16zM344 112h16v16h-16zM320 416h-16v32h-48v16h104v16H256v16h120v-48h-56zM432 96h16v80h-16z"/></svg>