<?xml version="1.0" encoding="iso-8859-1"?>
<!-- Generator: Adobe Illustrator 19.0.0, SVG Export Plug-In . SVG Version: 6.00 Build 0)  -->
<svg version="1.1" id="Capa_1" xmlns="http://www.w3.org/2000/svg" xmlns:xlink="http://www.w3.org/1999/xlink" x="0px" y="0px"
	 viewBox="0 0 500.944 500.944" style="enable-background:new 0 0 500.944 500.944;" xml:space="preserve">
<path style="fill:#FFCB57;" d="M421.36,210.656l-19.304-13.728c-8.984-6.392-8.984-19.48,0-25.872l19.304-13.728
	c4.016-2.856,5.904-7.776,4.8-12.504s-4.992-8.36-9.88-9.232l-23.488-4.184c-10.936-1.952-16.752-13.744-11.496-23.304
	l11.288-20.544c2.352-4.272,1.864-9.504-1.232-13.296s-8.208-5.416-13-4.136l-23.024,6.184c-10.72,2.88-21.2-5.28-20.712-16.128
	l1.048-23.296c0.216-4.848-2.544-9.352-7.016-11.456c-4.48-2.104-9.808-1.4-13.552,1.784l-17.984,15.32
	c-8.376,7.136-21.448,4.224-25.824-5.76l-9.408-21.432C259.928,10.888,255.44,8,250.472,8c-4.968,0-9.456,2.888-11.416,7.352
	l-9.408,21.432c-4.376,9.976-17.448,12.888-25.824,5.76l-17.992-15.328c-3.744-3.192-9.072-3.888-13.552-1.784
	s-7.24,6.616-7.016,11.456l1.048,23.296c0.488,10.848-9.992,19.008-20.712,16.128l-23.024-6.184c-4.792-1.288-9.904,0.336-13,4.136
	c-3.096,3.792-3.584,9.024-1.232,13.296l11.288,20.544c5.256,9.568-0.56,21.36-11.496,23.304l-23.488,4.184
	c-4.888,0.872-8.776,4.504-9.88,9.232s0.784,9.648,4.8,12.504l19.304,13.728c8.984,6.392,8.984,19.48,0,25.872l-19.304,13.728
	c-4.016,2.856-5.904,7.776-4.8,12.504s4.992,8.36,9.88,9.232l23.488,4.184c10.936,1.952,16.752,13.744,11.496,23.304l-11.288,20.544
	c-2.352,4.272-1.864,9.504,1.232,13.296s8.208,5.416,13,4.136l23.024-6.184c10.72-2.88,21.2,5.28,20.712,16.128l-1.048,23.296
	c-0.216,4.848,2.544,9.352,7.016,11.456c4.48,2.104,9.808,1.4,13.552-1.784l17.992-15.32c8.376-7.136,21.448-4.224,25.824,5.76
	l9.408,21.432c1.96,4.472,6.448,7.36,11.416,7.36c4.968,0,9.456-2.888,11.416-7.352l9.408-21.432
	c4.376-9.976,17.448-12.888,25.824-5.76l17.992,15.32c3.744,3.192,9.072,3.888,13.552,1.784s7.24-6.616,7.016-11.456l-1.048-23.296
	c-0.488-10.848,9.992-19.008,20.712-16.128l23.024,6.184c4.792,1.288,9.904-0.336,13-4.136c3.096-3.792,3.584-9.024,1.232-13.296
	l-11.296-20.544c-5.256-9.568,0.56-21.36,11.496-23.304l23.488-4.184c4.888-0.872,8.776-4.504,9.88-9.232
	S425.376,213.512,421.36,210.656z"/>
<g>
	<path style="fill:#3F3A34;" d="M250.472,304c-66.168,0-120-53.832-120-120s53.832-120,120-120s120,53.832,120,120
		S316.64,304,250.472,304z M250.472,80c-57.344,0-104,46.656-104,104s46.656,104,104,104s104-46.656,104-104S307.816,80,250.472,80z
		"/>
	<path style="fill:#3F3A34;" d="M250.472,272c-48.52,0-88-39.48-88-88s39.48-88,88-88s88,39.48,88,88S298.992,272,250.472,272z
		 M250.472,112c-39.704,0-72,32.296-72,72s32.296,72,72,72s72-32.296,72-72S290.176,112,250.472,112z"/>
	<path style="fill:#3F3A34;" d="M250.472,368c-8.16,0-15.512-4.768-18.744-12.144l-9.408-21.424
		c-1.04-2.384-3.144-4.088-5.768-4.696c-2.72-0.6-5.464,0.04-7.536,1.816l-18,15.32c-6.128,5.208-14.808,6.368-22.136,2.936
		c-7.416-3.488-11.976-10.968-11.608-19.064l1.048-23.296c0.112-2.496-0.976-4.84-2.976-6.456c-2.16-1.728-4.928-2.288-7.672-1.584
		l-23.024,6.176c-7.84,2.112-16.192-0.568-21.272-6.808c-5.168-6.352-5.968-15.064-2.04-22.208l11.296-20.536
		c1.656-3.016,0.832-5.704,0.2-7.032c-1.16-2.408-3.376-4.064-6.088-4.544l-23.504-4.184c-8.048-1.448-14.432-7.448-16.256-15.296
		c-1.856-7.888,1.264-16.08,7.944-20.832l19.312-13.728c2.144-1.52,3.368-3.856,3.368-6.416s-1.224-4.888-3.376-6.424
		l-19.296-13.712c-6.688-4.768-9.808-12.944-7.952-20.856c1.832-7.832,8.208-13.832,16.248-15.28l23.504-4.184
		c2.72-0.488,4.936-2.144,6.096-4.544c0.632-1.328,1.456-4.016-0.2-7.032l-11.296-20.544C97.4,84.272,98.2,75.56,103.384,69.216
		c5.096-6.24,13.472-8.888,21.272-6.8l23.016,6.176c2.736,0.728,5.512,0.152,7.672-1.584c2-1.608,3.088-3.96,2.968-6.456
		l-1.04-23.304c-0.352-8.112,4.208-15.584,11.616-19.064c7.328-3.44,16.024-2.272,22.144,2.944l17.992,15.312
		c2.08,1.776,4.824,2.408,7.536,1.816c2.624-0.608,4.728-2.312,5.768-4.688l9.408-21.44C234.96,4.768,242.312,0,250.472,0
		c8.16,0,15.512,4.768,18.744,12.144l9.408,21.424c1.04,2.384,3.144,4.088,5.768,4.696c2.712,0.6,5.472-0.04,7.536-1.816l18-15.32
		c6.128-5.216,14.808-6.368,22.136-2.936c7.416,3.488,11.976,10.968,11.608,19.064l-1.048,23.296
		c-0.112,2.496,0.976,4.84,2.976,6.456c2.168,1.736,4.944,2.32,7.672,1.584l23.024-6.176c7.832-2.112,16.192,0.56,21.272,6.808
		c5.168,6.352,5.968,15.064,2.04,22.208l-11.296,20.536c-1.656,3.016-0.832,5.704-0.2,7.032c1.16,2.408,3.376,4.064,6.088,4.544
		l23.504,4.184c8.048,1.448,14.432,7.448,16.256,15.296c1.856,7.888-1.264,16.08-7.944,20.832l-19.312,13.728
		c-2.144,1.52-3.368,3.856-3.368,6.416s1.224,4.888,3.376,6.424l19.304,13.72c6.68,4.76,9.8,12.936,7.944,20.848
		c-1.832,7.832-8.208,13.832-16.248,15.28l-23.504,4.184c-2.72,0.488-4.936,2.144-6.096,4.544c-0.632,1.328-1.456,4.016,0.2,7.032
		l11.296,20.544c3.936,7.152,3.136,15.864-2.048,22.208c-5.104,6.232-13.44,8.88-21.272,6.8l-23.016-6.176
		c-2.728-0.712-5.504-0.152-7.672,1.584c-2,1.608-3.088,3.96-2.968,6.456l1.048,23.296c0.352,8.112-4.208,15.584-11.616,19.064
		c-7.32,3.44-16.024,2.264-22.144-2.944l-17.992-15.312c-2.08-1.776-4.832-2.424-7.536-1.816c-2.624,0.608-4.728,2.312-5.768,4.688
		l-9.408,21.44C265.984,363.232,258.632,368,250.472,368z M214.496,313.504c1.872,0,3.768,0.208,5.648,0.64
		c7.6,1.752,13.744,6.808,16.832,13.856l9.408,21.424c1.36,3.128,6.816,3.12,8.168,0.008L263.968,328
		c3.096-7.048,9.232-12.104,16.832-13.848c7.68-1.76,15.528,0.136,21.504,5.216l18,15.32c1.368,1.168,3.304,1.408,4.96,0.64
		c1.544-0.728,2.496-2.24,2.432-3.872l-1.048-23.28c-0.344-7.64,2.904-14.808,8.928-19.64c6.088-4.896,14.264-6.592,21.832-4.568
		l23.024,6.176c1.768,0.496,3.64-0.128,4.736-1.472c1.04-1.272,1.2-2.952,0.424-4.376l-11.296-20.552
		c-3.728-6.776-3.952-14.664-0.616-21.632c3.352-7.016,9.976-12.024,17.72-13.4l23.488-4.184c1.744-0.312,3.12-1.56,3.496-3.168
		c0.368-1.568-0.28-3.2-1.64-4.168l-19.304-13.72c-6.424-4.568-10.104-11.664-10.104-19.464s3.68-14.888,10.096-19.456
		l19.312-13.728c1.36-0.968,2.008-2.6,1.64-4.16c-0.376-1.624-1.752-2.872-3.504-3.184l-23.488-4.184
		c-7.736-1.376-14.36-6.384-17.712-13.4c-3.336-6.968-3.112-14.856,0.616-21.632l11.296-20.544c0.776-1.408,0.6-3.128-0.432-4.392
		c-1.088-1.336-2.96-1.944-4.72-1.464l-23.032,6.176c-7.568,2.016-15.752,0.328-21.832-4.56c-6.024-4.832-9.28-12-8.936-19.648
		l1.048-23.296c0.072-1.616-0.872-3.136-2.424-3.856c-1.656-0.768-3.6-0.528-4.952,0.632L302.304,48.64
		c-5.968,5.088-13.824,6.984-21.504,5.216c-7.6-1.752-13.744-6.808-16.832-13.856l-9.408-21.424c-1.36-3.128-6.816-3.12-8.168-0.008
		L236.976,40c-3.096,7.048-9.232,12.104-16.832,13.848c-7.672,1.768-15.52-0.136-21.504-5.216l-18-15.32
		c-1.368-1.168-3.312-1.408-4.96-0.64c-1.544,0.728-2.496,2.24-2.432,3.872l1.048,23.28c0.344,7.64-2.904,14.808-8.928,19.64
		c-6.096,4.896-14.28,6.584-21.832,4.568l-23.024-6.176c-1.744-0.488-3.632,0.128-4.728,1.464c-1.048,1.28-1.208,2.96-0.432,4.384
		l11.296,20.552c3.728,6.776,3.952,14.664,0.616,21.632c-3.352,7.016-9.976,12.024-17.72,13.4l-23.488,4.184
		c-1.744,0.312-3.12,1.56-3.496,3.168c-0.368,1.568,0.28,3.2,1.648,4.176l19.296,13.712c6.424,4.568,10.104,11.664,10.104,19.464
		s-3.68,14.888-10.096,19.456L84.2,217.176c-1.36,0.968-2.008,2.6-1.64,4.16c0.376,1.624,1.752,2.872,3.504,3.184l23.488,4.184
		c7.736,1.376,14.36,6.384,17.712,13.4c3.336,6.968,3.112,14.856-0.616,21.632l-11.296,20.544c-0.776,1.408-0.6,3.128,0.432,4.392
		c1.096,1.336,2.968,1.936,4.72,1.464l23.032-6.176c7.552-2.024,15.744-0.328,21.832,4.56c6.024,4.832,9.28,12,8.936,19.648
		l-1.048,23.296c-0.072,1.616,0.872,3.136,2.424,3.856c1.648,0.768,3.6,0.528,4.952-0.632l18.008-15.328
		C203.152,315.528,208.72,313.504,214.496,313.504z"/>
	<path style="fill:#3F3A34;" d="M289.304,237.464l-38.832-20.424l-38.832,20.424l7.416-43.248l-31.416-30.632l43.416-6.304
		l19.416-39.36l19.424,39.352l43.416,6.304l-31.416,30.632L289.304,237.464z M250.472,198.96l17.584,9.248l-3.352-19.592
		l14.224-13.864l-19.656-2.856l-8.8-17.816l-8.8,17.824l-19.664,2.848l14.224,13.864l-3.352,19.592L250.472,198.96z"/>
</g>
<g>
	<polygon style="fill:#E56565;" points="338.472,500.944 250.472,456.944 162.472,500.944 162.472,368 178.472,368 178.472,475.056 
		250.472,439.056 322.472,475.056 322.472,368 338.472,368 	"/>
	<rect x="290.472" y="352" style="fill:#E56565;" width="16" height="120"/>
	<rect x="194.472" y="352" style="fill:#E56565;" width="16" height="120"/>
</g>
<g>
</g>
<g>
</g>
<g>
</g>
<g>
</g>
<g>
</g>
<g>
</g>
<g>
</g>
<g>
</g>
<g>
</g>
<g>
</g>
<g>
</g>
<g>
</g>
<g>
</g>
<g>
</g>
<g>
</g>
</svg>
