<?xml version="1.0" encoding="iso-8859-1"?>
<!-- Generator: Adobe Illustrator 19.0.0, SVG Export Plug-In . SVG Version: 6.00 Build 0)  -->
<svg version="1.1" id="Capa_1" xmlns="http://www.w3.org/2000/svg" xmlns:xlink="http://www.w3.org/1999/xlink" x="0px" y="0px"
	 viewBox="0 0 501.208 501.208" style="enable-background:new 0 0 501.208 501.208;" xml:space="preserve">
<g>
	<g>
		<path d="M250.336,252.548c-5.784-20.248-22.208-35.392-42.856-39.52l-44.872-8.984v-2.104c14.8-8.592,25.824-22.928,30.048-39.952
			c14.76-2.84,25.952-15.808,25.952-31.384v-40c0-48.52-39.48-88-88-88s-88,39.48-88,88v40c0,15.576,11.192,28.544,25.952,31.392
			c4.224,17.024,15.248,31.36,30.048,39.952v2.104l-44.864,8.976c-20.656,4.128-37.08,19.272-42.864,39.52L0,290.604h261.208
			L250.336,252.548z M194.608,144.38v-27.552c4.76,2.776,8,7.88,8,13.776S199.368,141.604,194.608,144.38z M66.608,144.38
			c-4.76-2.776-8-7.88-8-13.776s3.24-11,8-13.776V144.38z M58.608,103.052V90.604c0-39.696,32.304-72,72-72s72,32.304,72,72v12.448
			c-4.728-2.752-10.144-4.448-16-4.448h-14.056c-19.752,0-38.32-7.688-52.288-21.656l-6.896-6.904l-8.104,12.152
			c-6.848,10.272-18.312,16.408-30.656,16.408C68.752,98.604,63.336,100.3,58.608,103.052z M82.608,146.604v-32.68
			c13.136-2.008,25.072-8.816,33.392-19.312c15.96,12.952,35.712,19.992,56.552,19.992h6.056v32c0,26.472-21.528,48-48,48
			S82.608,173.076,82.608,146.604z M146.608,208.5v2.104c0,8.824-7.176,16-16,16c-8.824,0-16-7.176-16-16V208.5
			c5.128,1.328,10.464,2.104,16,2.104S141.48,209.828,146.608,208.5z M200.856,274.604l-6.488-25.944l-15.52,3.88l5.512,22.064
			H76.856l5.512-22.056l-15.52-3.88l-6.488,25.936H21.216l5.048-17.664c4.136-14.464,15.864-25.288,30.616-28.232l43.312-8.664
			c4.056,13.016,16.08,22.56,30.416,22.56s26.36-9.544,30.416-22.56l43.32,8.664c14.752,2.952,26.48,13.768,30.616,28.232
			l5.04,17.664H200.856z"/>
	</g>
</g>
<g>
	<g>
		<path d="M490.336,460.548c-4.688-16.432-16.456-29.384-31.728-35.936V298.604c0-48.52-39.48-88-88-88c-48.52,0-88,39.48-88,88
			v126.008c-15.28,6.552-27.04,19.504-31.728,35.936L240,498.604h261.208L490.336,460.548z M298.608,298.604
			c0-39.696,32.304-72,72-72s72,32.304,72,72v12.448c-4.728-2.752-10.144-4.448-16-4.448c-12.344,0-23.808-6.136-30.656-16.408
			l-8.104-12.152l-6.896,6.904c-13.968,13.968-32.536,21.656-52.288,21.656h-14.056c-5.856,0-11.272,1.696-16,4.448V298.604z
			 M370.608,402.604c-26.472,0-48-21.528-48-48v-32h6.056c20.832,0,40.592-7.04,56.552-19.992
			c8.312,10.488,20.248,17.304,33.392,19.312v32.68C418.608,381.076,397.08,402.604,370.608,402.604z M386.608,416.5v2.104
			c0,8.824-7.176,16-16,16c-8.824,0-16-7.176-16-16V416.5c5.128,1.328,10.464,2.104,16,2.104S381.48,417.828,386.608,416.5z
			 M402.608,409.948c14.8-8.592,25.824-22.928,30.048-39.952c3.584-0.688,6.896-2.056,9.952-3.84v53.896l-40-8V409.948z
			 M434.608,352.38v-27.552c4.76,2.776,8,7.88,8,13.776S439.368,349.604,434.608,352.38z M306.608,324.828v27.552
			c-4.76-2.776-8-7.88-8-13.776S301.848,327.604,306.608,324.828z M298.608,366.156c3.056,1.784,6.368,3.152,9.952,3.84
			c4.224,17.024,15.248,31.36,30.048,39.952v2.104l-40,8V366.156z M440.856,482.604l-6.488-25.944l-15.52,3.88l5.512,22.064H316.856
			l5.512-22.056l-15.52-3.88l-6.488,25.936h-39.144l5.048-17.664c4.136-14.464,15.864-25.288,30.616-28.232l43.312-8.664
			c4.056,13.016,16.08,22.56,30.416,22.56s26.36-9.544,30.416-22.56l43.32,8.664c14.752,2.952,26.48,13.768,30.616,28.232
			l5.04,17.664H440.856z"/>
	</g>
</g>
<g>
	<g>
		<path d="M79.704,338.092l31.328,15.664l7.16-14.312l-55.16-27.576l-27.576,55.16l14.312,7.16l15.024-30.048
			c29.808,58.944,87.16,101.304,152.552,111.824l2.536-15.8C159.968,430.524,107.384,391.892,79.704,338.092z"/>
	</g>
</g>
<g>
	<g>
		<path d="M474.608,2.604h-192c-13.232,0-24,10.768-24,24v96c0,13.232,10.768,24,24,24h48v54.952l82.424-54.952h61.576
			c13.232,0,24-10.768,24-24v-96C498.608,13.372,487.84,2.604,474.608,2.604z M482.608,122.604c0,4.408-3.592,8-8,8h-66.424
			l-61.576,41.048v-41.048h-64c-4.408,0-8-3.592-8-8v-96c0-4.408,3.592-8,8-8h192c4.408,0,8,3.592,8,8V122.604z"/>
	</g>
</g>
<g>
	<g>
		<path d="M314.608,50.604c-13.232,0-24,10.768-24,24s10.768,24,24,24s24-10.768,24-24S327.84,50.604,314.608,50.604z
			 M314.608,82.604c-4.408,0-8-3.592-8-8s3.592-8,8-8c4.408,0,8,3.592,8,8S319.016,82.604,314.608,82.604z"/>
	</g>
</g>
<g>
	<g>
		<path d="M378.608,50.604c-13.232,0-24,10.768-24,24s10.768,24,24,24s24-10.768,24-24S391.84,50.604,378.608,50.604z
			 M378.608,82.604c-4.408,0-8-3.592-8-8s3.592-8,8-8c4.408,0,8,3.592,8,8S383.016,82.604,378.608,82.604z"/>
	</g>
</g>
<g>
	<g>
		<path d="M442.608,50.604c-13.232,0-24,10.768-24,24s10.768,24,24,24s24-10.768,24-24S455.84,50.604,442.608,50.604z
			 M442.608,82.604c-4.408,0-8-3.592-8-8s3.592-8,8-8c4.408,0,8,3.592,8,8S447.016,82.604,442.608,82.604z"/>
	</g>
</g>
<g>
</g>
<g>
</g>
<g>
</g>
<g>
</g>
<g>
</g>
<g>
</g>
<g>
</g>
<g>
</g>
<g>
</g>
<g>
</g>
<g>
</g>
<g>
</g>
<g>
</g>
<g>
</g>
<g>
</g>
</svg>
