<svg xmlns="http://www.w3.org/2000/svg" viewBox="0 0 501.208 501.208"><path d="M250.336 252.548c-5.784-20.248-22.208-35.392-42.856-39.52l-44.872-8.984v-2.104c14.8-8.592 25.824-22.928 30.048-39.952 14.76-2.84 25.952-15.808 25.952-31.384v-40c0-48.52-39.48-88-88-88s-88 39.48-88 88v40c0 15.576 11.192 28.544 25.952 31.392 4.224 17.024 15.248 31.36 30.048 39.952v2.104l-44.864 8.976c-20.656 4.128-37.08 19.272-42.864 39.52L0 290.604h261.208l-10.872-38.056zM194.608 144.38v-27.552c4.76 2.776 8 7.88 8 13.776s-3.24 11-8 13.776zm-128 0c-4.76-2.776-8-7.88-8-13.776s3.24-11 8-13.776v27.552zm-8-41.328V90.604c0-39.696 32.304-72 72-72s72 32.304 72 72v12.448c-4.728-2.752-10.144-4.448-16-4.448h-14.056c-19.752 0-38.32-7.688-52.288-21.656l-6.896-6.904-8.104 12.152a36.777 36.777 0 0 1-30.656 16.408c-5.856 0-11.272 1.696-16 4.448zm24 43.552v-32.68c13.136-2.008 25.072-8.816 33.392-19.312 15.96 12.952 35.712 19.992 56.552 19.992h6.056v32c0 26.472-21.528 48-48 48s-48-21.528-48-48zm64 61.896v2.104c0 8.824-7.176 16-16 16s-16-7.176-16-16V208.5c5.128 1.328 10.464 2.104 16 2.104s10.872-.776 16-2.104zm54.248 66.104l-6.488-25.944-15.52 3.88 5.512 22.064H76.856l5.512-22.056-15.52-3.88-6.488 25.936H21.216l5.048-17.664c4.136-14.464 15.864-25.288 30.616-28.232l43.312-8.664c4.056 13.016 16.08 22.56 30.416 22.56s26.36-9.544 30.416-22.56l43.32 8.664c14.752 2.952 26.48 13.768 30.616 28.232l5.04 17.664h-39.144zM490.336 460.548c-4.688-16.432-16.456-29.384-31.728-35.936V298.604c0-48.52-39.48-88-88-88s-88 39.48-88 88v126.008c-15.28 6.552-27.04 19.504-31.728 35.936L240 498.604h261.208l-10.872-38.056zM298.608 298.604c0-39.696 32.304-72 72-72s72 32.304 72 72v12.448c-4.728-2.752-10.144-4.448-16-4.448a36.777 36.777 0 0 1-30.656-16.408l-8.104-12.152-6.896 6.904c-13.968 13.968-32.536 21.656-52.288 21.656h-14.056c-5.856 0-11.272 1.696-16 4.448v-12.448zm72 104c-26.472 0-48-21.528-48-48v-32h6.056c20.832 0 40.592-7.04 56.552-19.992 8.312 10.488 20.248 17.304 33.392 19.312v32.68c0 26.472-21.528 48-48 48zm16 13.896v2.104c0 8.824-7.176 16-16 16s-16-7.176-16-16V416.5c5.128 1.328 10.464 2.104 16 2.104s10.872-.776 16-2.104zm16-6.552c14.8-8.592 25.824-22.928 30.048-39.952 3.584-.688 6.896-2.056 9.952-3.84v53.896l-40-8v-2.104zm32-57.568v-27.552c4.76 2.776 8 7.88 8 13.776s-3.24 11-8 13.776zm-128-27.552v27.552c-4.76-2.776-8-7.88-8-13.776s3.24-11 8-13.776zm-8 41.328c3.056 1.784 6.368 3.152 9.952 3.84 4.224 17.024 15.248 31.36 30.048 39.952v2.104l-40 8v-53.896zm142.248 116.448l-6.488-25.944-15.52 3.88 5.512 22.064H316.856l5.512-22.056-15.52-3.88-6.488 25.936h-39.144l5.048-17.664c4.136-14.464 15.864-25.288 30.616-28.232l43.312-8.664c4.056 13.016 16.08 22.56 30.416 22.56s26.36-9.544 30.416-22.56l43.32 8.664c14.752 2.952 26.48 13.768 30.616 28.232l5.04 17.664h-39.144zM79.704 338.092l31.328 15.664 7.16-14.312-55.16-27.576-27.576 55.16 14.312 7.16 15.024-30.048c29.808 58.944 87.16 101.304 152.552 111.824l2.536-15.8c-59.912-9.64-112.496-48.272-140.176-102.072zM474.608 2.604h-192c-13.232 0-24 10.768-24 24v96c0 13.232 10.768 24 24 24h48v54.952l82.424-54.952h61.576c13.232 0 24-10.768 24-24v-96c0-13.232-10.768-24-24-24zm8 120c0 4.408-3.592 8-8 8h-66.424l-61.576 41.048v-41.048h-64c-4.408 0-8-3.592-8-8v-96c0-4.408 3.592-8 8-8h192c4.408 0 8 3.592 8 8v96z"/><path d="M314.608 50.604c-13.232 0-24 10.768-24 24s10.768 24 24 24 24-10.768 24-24-10.768-24-24-24zm0 32c-4.408 0-8-3.592-8-8s3.592-8 8-8c4.408 0 8 3.592 8 8s-3.592 8-8 8zM378.608 50.604c-13.232 0-24 10.768-24 24s10.768 24 24 24 24-10.768 24-24-10.768-24-24-24zm0 32c-4.408 0-8-3.592-8-8s3.592-8 8-8c4.408 0 8 3.592 8 8s-3.592 8-8 8zM442.608 50.604c-13.232 0-24 10.768-24 24s10.768 24 24 24 24-10.768 24-24-10.768-24-24-24zm0 32c-4.408 0-8-3.592-8-8s3.592-8 8-8c4.408 0 8 3.592 8 8s-3.592 8-8 8z"/></svg>