<svg version="1" xmlns="http://www.w3.org/2000/svg" viewBox="0 0 496 496"><path d="M304 304H192v-80h112v80z" fill="#ffa64d"/><g fill="#333"><path d="M480 128a40 40 0 0 0 2-62l-10 12a24 24 0 1 1-40 18c0-7 3-13 8-18l-10-12c-9 8-14 19-14 30 0 13 6 25 16 32v64h-8v10l-56 5v-15h-88v-16h16c13 0 24-11 24-24v-40h32V64h-32V32h-64V0h-16v32h-64v32h-32v48h32v40c0 13 11 24 24 24h16v16h-88v15l-56-5v-10h-8v-64a40 40 0 0 0 2-62L56 78a24 24 0 1 1-40 18c0-7 3-13 8-18L14 66C5 74 0 85 0 96c0 13 6 25 16 32v64H8v32c0 18 14 32 32 32 8 0 15-3 20-8l68 7v17h32v72c0 10 7 19 16 23v81h-8c-13 0-24 11-24 24v24h80V368h48v128h80v-24c0-13-11-24-24-24h-8v-81c9-4 16-13 16-23v-72h32v-17l68-7c5 5 12 8 20 8 18 0 32-14 32-32v-32h-8v-64zm-448 7l8 1 8-1v57H32v-57zm8 105c-9 0-16-7-16-16v-16h32v16c0 9-7 16-16 16zm30-7l2-9v-6l56 5v16l-58-6zm74 23v-48h16v48h-16zm304-121l8 1 8-1v57h-16v-57zM336 80v16h-16V80h16zm-32-32v64h-27l-7 7a31 31 0 0 1-44 0l-7-7h-27V48h112zM160 96V80h16v16h-16zm40 64c-4 0-8-4-8-8v-24h21l2 2a46 46 0 0 0 66 0l2-2h21v24c0 4-4 8-8 8h-96zm32 16h32v16h-32v-16zm-24 240h-16v-16h16v16zm0 64h-48v-8c0-4 4-8 8-8h40v16zm-16-32v-16h16v16h-16zm16-64h-16v-16h16v16zm96 32h-16v-16h16v16zm0-32h-16v-16h16v16zm32 88v8h-48v-16h40c4 0 8 4 8 8zm-48-24v-16h16v16h-16zm64-192h-16v-16h-16v104c0 4-4 8-8 8H184c-4 0-8-4-8-8V208h144v16h16v-16h16v48zm16-33l56-5v6l2 9-58 6v-16zm104 1a16 16 0 0 1-32 0v-16h32v16z"/><path d="M192 320h16v16h-16zM288 320h16v16h-16zM224 320h48v16h-48zM208 64h16v16h-16zM272 64h16v16h-16z"/></g></svg>