<svg xmlns="http://www.w3.org/2000/svg" viewBox="0 0 285.714 285.714"><path d="M285.714 100v-9.524h-90.476V0h-9.524v90.476H100V0h-9.524v90.476H0V100h90.476v85.714H0v9.524h90.476v90.476H100v-90.476h85.714v90.476h9.524v-90.476h90.476v-9.524h-90.476V100h90.476zm-100 85.714H100V100h85.714v85.714z"/><path d="M142.857 180.952c21.005 0 38.095-17.09 38.095-38.095s-17.09-38.095-38.095-38.095-38.095 17.09-38.095 38.095 17.09 38.095 38.095 38.095zm0-66.666c15.757 0 28.571 12.814 28.571 28.571s-12.814 28.571-28.571 28.571-28.571-12.814-28.571-28.571 12.814-28.571 28.571-28.571zM47.619 200c-21.005 0-38.095 17.09-38.095 38.095s17.09 38.095 38.095 38.095 38.095-17.09 38.095-38.095S68.624 200 47.619 200zm0 66.667c-15.757 0-28.571-12.814-28.571-28.571 0-15.757 12.814-28.571 28.571-28.571 15.757 0 28.571 12.814 28.571 28.571 0 15.757-12.814 28.571-28.571 28.571zM238.095 85.714c21.005 0 38.095-17.09 38.095-38.095S259.1 9.524 238.095 9.524 200 26.614 200 47.619s17.09 38.095 38.095 38.095zm0-66.666c15.757 0 28.571 12.814 28.571 28.571 0 15.757-12.814 28.571-28.571 28.571-15.757 0-28.571-12.814-28.571-28.571 0-15.757 12.814-28.571 28.571-28.571zM268.062 201.395l-29.967 29.967-29.966-29.967-6.734 6.734 29.967 29.966-29.967 29.967 6.734 6.733 29.966-29.966 29.967 29.966 6.733-6.733-29.966-29.967 29.966-29.966zM17.652 179.557l29.967-29.967 29.967 29.967 6.733-6.733-29.967-29.967 29.967-29.967-6.733-6.733-29.967 29.967-29.967-29.967-6.733 6.733 29.967 29.967-29.967 29.967z"/></svg>