<svg version="1" xmlns="http://www.w3.org/2000/svg" width="682.7" height="682.7" viewBox="0 0 512 512"><path d="M13.1 2.6A24.2 24.2 0 0 0 .9 16.9C.2 19.4 0 96.5.2 258.1l.3 237.6 3 4.9c1.9 3 4.9 6 7.9 7.9l4.9 3h479.4l4.9-3c3-1.9 6-4.9 7.9-7.9l3-4.9.3-50.2c.2-46.9.1-50.4-1.5-52.3-2.6-3-7.3-3.3-10.8-.6-1.9 1.4-2 3-2.5 49.2-.6 53.6-.3 52.1-7.7 54.1-5.3 1.5-461.3 1.5-466.6 0-2.1-.6-4.4-2.1-5.5-3.7-1.6-2.5-1.7-15.9-1.7-236.2 0-220.3.1-233.7 1.7-236.2 1.1-1.6 3.4-3.1 5.5-3.7 5.3-1.5 461.3-1.5 466.6 0 2.1.6 4.4 2.1 5.5 3.7 1.6 2.4 1.7 13.3 2.2 174.7.3 94.6.8 172.5 1.3 173.2.4.6 2.3 1.7 4.3 2.3 3.2 1.1 3.9 1 6.3-.7l2.6-2v-351l-3-4.9a27 27 0 0 0-7.9-7.9l-4.9-3L257 .2 18.4 0l-5.3 2.6z"/><path d="M170 40.3c-5 2.5-5 2.1-5 65.9V166h-62.5c-61.2 0-62.5 0-64.5 2-2.8 2.8-2.6 8.1.3 10.8l2.3 2.2H165v150H40.3l-2.1 2.3c-2.8 3-2.9 8-.2 10.7 2 2 3.3 2 64.5 2H165l.2 61 .3 60.9 2.2 2.2a7.5 7.5 0 0 0 10.6 0l2.2-2.2.3-60.9.2-61h9.8c9 0 10-.2 12-2.3 2.9-3.1 2.8-7.2-.3-10.2-2.2-2.3-3.2-2.5-12-2.5H181V181h150v150h-51.4c-50.4 0-51.4 0-54 2.1-3 2.3-3.5 7.2-1.2 10.5 1.4 1.8 3.4 1.9 53.8 2.4l52.3.5.5 61c.3 33.5.9 61.6 1.3 62.3 2.4 3.6 9.4 3.3 12.3-.6 1.1-1.3 1.3-14.2 1.4-62.5V346h63c61.7 0 63 0 65-2 2.8-2.8 2.6-8.1-.3-10.8l-2.3-2.2H346V181H471.7l2.1-2.3c2.8-3 2.9-8 .2-10.7-2-2-3.3-2-65-2h-63v-60.8c-.1-48.2-.3-61.1-1.4-62.4-2.9-3.9-9.9-4.2-12.3-.6-.4.7-1 28.7-1.3 62.3l-.5 61-74.7.3-74.8.2-.2-61c-.3-59.5-.3-61-2.3-62.9-2.8-2.7-5.6-3.3-8.5-1.8z"/><path d="M90.3 55a45.4 45.4 0 0 0-32.4 24.4A43.6 43.6 0 0 0 91.2 141a43.5 43.5 0 0 0 48.4-34.1c3.5-16.6-2.5-32.6-11.3-30.4-6.2 1.5-7.8 6-4.8 13.2 4.2 9.9-1 24.5-11 31.1a27.5 27.5 0 0 1-42.3-28 28.1 28.1 0 0 1 31.6-22.1c4.5.5 5.3.3 7.6-2 3.9-3.9 2.9-10.3-2-12.5A35.5 35.5 0 0 0 90.3 55zM246.2 212.5a43.5 43.5 0 0 0-20.9 72.9A40.3 40.3 0 0 0 256 298c12.6 0 22-3.9 30.7-12.6a43.5 43.5 0 0 0-40.5-72.9zm17.2 15.9a27.5 27.5 0 0 1 19.6 21.2c4.9 23.4-21.9 41.3-42 28.2a27.4 27.4 0 0 1 6.5-49c6.2-2.1 9.8-2.2 15.9-.4zM375.3 218.2c-2.7 1.3-4.7 5.9-3.8 8.8.4 1.2 6.3 7.9 13.2 15l12.5 13-6 6.7c-3.3 3.8-8.6 9.3-11.7 12.3a50 50 0 0 0-7.1 8.3 7.1 7.1 0 0 0 6.5 10.7c3.3 0 4.6-1 16.4-13.2l12.8-13.2 13.2 13.2c11.5 11.5 13.6 13.2 16.5 13.2 4.3 0 7.2-3 7.2-7.6 0-3.3-1.2-4.8-12.9-16.7l-12.9-13.1 13-13.8c12.2-13.1 12.9-14.1 12.6-17.5a7 7 0 0 0-3-5.6c-4.5-3.4-7.1-1.8-20.7 12.4l-12.4 13-13.7-13.6c-13.7-13.6-15.2-14.5-19.7-12.3zM394.4 366.9A43.6 43.6 0 1 0 439 439a43.5 43.5 0 0 0-12.7-70.3c-6.1-2.9-7.9-3.2-16.8-3.4-7.7-.2-11.2.2-15.1 1.6zm25.8 16.2a29.8 29.8 0 0 1 15.8 24.4c0 24.2-28.2 37.3-45.7 21.2-17.3-15.9-9.2-44.2 13.6-47.6 5.2-.8 12.8.2 16.3 2zM69.6 372.1a6.2 6.2 0 0 0-2.6 5.5c0 3 1.5 5 13 17.2l12.9 13.7L80 421.6c-11.9 12-13 13.4-13 16.7 0 4.7 2.8 7.7 7.2 7.7 2.9 0 5-1.7 16.6-13.3l13.2-13.2 12.8 13.3c11 11.5 13.1 13.2 15.8 13.2 4.7 0 7.8-3 7.8-7.4 0-3.2-1-4.7-8.5-12.4l-12.8-13.4-4.4-4.7 12.2-12.7a143 143 0 0 0 13.3-15c2.3-4.9-3.2-11.4-8.5-10-1.4.3-8.3 6.5-15.3 13.6l-12.8 13.1-13.1-13.6c-14.1-14.7-15.7-15.5-20.9-11.4z"/></svg>