<?xml version="1.0" encoding="iso-8859-1"?>
<!-- Generator: Adobe Illustrator 19.0.0, SVG Export Plug-In . SVG Version: 6.00 Build 0)  -->
<svg xmlns="http://www.w3.org/2000/svg" xmlns:xlink="http://www.w3.org/1999/xlink" version="1.1" id="Layer_1" x="0px" y="0px" viewBox="0 0 496 496" style="enable-background:new 0 0 496 496;" xml:space="preserve" width="512px" height="512px">
<g>
	<g>
		<g>
			<rect x="104" y="448" width="96" height="16" fill="#FFFFFF"/>
			<path d="M436,376c-8.208,0-16.032,1.664-23.168,4.664L312,318.608V178.96l96.56-65.664C416.792,117.552,426.112,120,436,120     c33.088,0,60-26.912,60-60S469.088,0,436,0s-60,26.912-60,60c0,2.52,0.208,4.984,0.512,7.416L312,111.28V40     c0-22.056-17.944-40-40-40H40C17.944,0,0,17.944,0,40v416c0,22.056,17.944,40,40,40h232c22.056,0,40-17.944,40-40v-71.84     l65.168,40.104c-0.752,3.8-1.168,7.72-1.168,11.736c0,33.088,26.912,60,60,60s60-26.912,60-60S469.088,376,436,376z M436,16     c24.264,0,44,19.736,44,44s-19.736,44-44,44c-24.264,0-44-19.736-44-44S411.736,16,436,16z M380.928,83.768     c3.232,7.448,7.944,14.096,13.744,19.624l-183.6,124.848c-3.232-7.448-7.944-14.096-13.744-19.624L380.928,83.768z      M215.488,244.584L296,189.84v118.928l-80.48-49.528c0.288-2.384,0.48-4.784,0.48-7.24     C216,249.48,215.792,247.016,215.488,244.584z M200,252c0,24.264-19.736,44-44,44c-24.264,0-44-19.736-44-44     c0-24.264,19.736-44,44-44C180.264,208,200,227.736,200,252z M16,40c0-13.232,10.768-24,24-24h232c13.232,0,24,10.768,24,24v24     H16V40z M296,416h-32v16h32v24c0,13.232-10.768,24-24,24H40c-13.232,0-24-10.768-24-24v-24h232v-16H16V80h280v42.16     l-112.56,76.544C175.208,194.448,165.888,192,156,192c-33.088,0-60,26.912-60,60s26.912,60,60,60     c9.984,0,19.376-2.488,27.664-6.816L296,374.312V416z M197.704,295.04c5.728-5.552,10.376-12.208,13.544-19.648L397.52,390.024     c-6.168,5.168-11.248,11.568-14.936,18.792L197.704,295.04z M436,480c-24.264,0-44-19.736-44-44c0-24.264,19.736-44,44-44     c24.264,0,44,19.736,44,44C480,460.264,460.264,480,436,480z" fill="#FFFFFF"/>
		</g>
	</g>
</g>
<g>
</g>
<g>
</g>
<g>
</g>
<g>
</g>
<g>
</g>
<g>
</g>
<g>
</g>
<g>
</g>
<g>
</g>
<g>
</g>
<g>
</g>
<g>
</g>
<g>
</g>
<g>
</g>
<g>
</g>
</svg>
